<svg width="22" height="19" viewBox="0 0 22 19" fill="none" xmlns="http://www.w3.org/2000/svg">
<path d="M2.34375 8.59375H20.4688C20.7091 8.59375 20.9396 8.68923 21.1096 8.85918C21.2795 9.02914 21.375 9.25965 21.375 9.5C21.375 9.74035 21.2795 9.97086 21.1096 10.1408C20.9396 10.3108 20.7091 10.4062 20.4688 10.4062H2.34375C2.1034 10.4062 1.87289 10.3108 1.70293 10.1408C1.53298 9.97086 1.4375 9.74035 1.4375 9.5C1.4375 9.25965 1.53298 9.02914 1.70293 8.85918C1.87289 8.68923 2.1034 8.59375 2.34375 8.59375Z" fill="#23D4AA"/>
<path d="M2.71909 9.5L10.2355 17.0146C10.4057 17.1848 10.5013 17.4156 10.5013 17.6562C10.5013 17.8969 10.4057 18.1277 10.2355 18.2979C10.0654 18.468 9.83456 18.5636 9.5939 18.5636C9.35325 18.5636 9.12245 18.468 8.95228 18.2979L0.79603 10.1416C0.711634 10.0574 0.644675 9.95744 0.598989 9.84733C0.553302 9.73723 0.529785 9.6192 0.529785 9.5C0.529785 9.3808 0.553302 9.26276 0.598989 9.15266C0.644675 9.04256 0.711634 8.94256 0.79603 8.85837L8.95228 0.702125C9.12245 0.531956 9.35325 0.436356 9.5939 0.436356C9.83456 0.436356 10.0654 0.531956 10.2355 0.702125C10.4057 0.872295 10.5013 1.10309 10.5013 1.34375C10.5013 1.58441 10.4057 1.81521 10.2355 1.98538L2.71909 9.5Z" fill="#23D4AA"/>
</svg>
