<svg width="74" height="74" viewBox="0 0 74 74" fill="none" xmlns="http://www.w3.org/2000/svg">
<path d="M61.5808 12.5638C55.1095 6.09251 46.3325 2.45697 37.1807 2.45697C28.0289 2.45697 19.252 6.09251 12.7807 12.5638C6.30936 19.0351 2.67383 27.8121 2.67383 36.9639C2.67383 46.1157 6.30936 54.8926 12.7807 61.3639C19.252 67.8352 28.0289 71.4707 37.1807 71.4707C46.3325 71.4707 55.1095 67.8352 61.5808 61.3639C68.0521 54.8926 71.6876 46.1157 71.6876 36.9639C71.6876 27.8121 68.0521 19.0351 61.5808 12.5638ZM37.1807 66.8457C20.7042 66.8457 7.29888 53.4407 7.29888 36.9639C7.29888 20.487 20.7039 7.08202 37.1807 7.08202C53.6576 7.08202 67.0626 20.487 67.0626 36.9639C67.0626 53.4407 53.6576 66.8457 37.1807 66.8457Z" fill="#23D4AA"/>
<path d="M33.475 41.7155L26.2323 34.7653L24 36.9075L33.475 46L50 30.1422L47.7676 28L33.475 41.7155Z" fill="white"/>
</svg>
