<svg width="70" height="70" viewBox="0 0 70 70" fill="none" xmlns="http://www.w3.org/2000/svg">
<path d="M58.9069 10.1068C52.4356 3.63554 43.6587 0 34.5069 0C25.3551 0 16.5781 3.63554 10.1068 10.1068C3.63554 16.5781 0 25.3551 0 34.5069C0 43.6587 3.63554 52.4356 10.1068 58.9069C16.5781 65.3782 25.3551 69.0138 34.5069 69.0138C43.6587 69.0138 52.4356 65.3782 58.9069 58.9069C65.3782 52.4356 69.0138 43.6587 69.0138 34.5069C69.0138 25.3551 65.3782 16.5781 58.9069 10.1068V10.1068ZM34.5069 64.3887C18.0303 64.3887 4.62505 50.9837 4.62505 34.5069C4.62505 18.03 18.03 4.62505 34.5069 4.62505C50.9837 4.62505 64.3887 18.03 64.3887 34.5069C64.3887 50.9837 50.9837 64.3887 34.5069 64.3887Z" fill="#FF004C"/>
<path d="M37.1188 34.6611L45.7205 26.0594L43.2629 23.6017L34.6611 32.2035L26.0594 23.6017L23.6017 26.0594L32.2035 34.6611L23.6017 43.2629L26.0594 45.7205L34.6611 37.1188L43.2629 45.7205L45.7205 43.2629L37.1188 34.6611Z" fill="white"/>
</svg>
