<svg width="110" height="110" viewBox="0 0 64 69" fill="none" xmlns="http://www.w3.org/2000/svg">
<path d="M27.242 5.03C25.134 4.503 23.497 2.865 22.969 0.757C22.859 0.313 22.459 0 22 0C21.541 0 21.141 0.312 21.03 0.757C20.503 2.865 18.866 4.502 16.758 5.03C16.312 5.141 16 5.541 16 6C16 6.459 16.312 6.859 16.758 6.97C18.866 7.497 20.503 9.135 21.03 11.242C21.141 11.688 21.541 12 22 12C22.459 12 22.859 11.688 22.97 11.243C23.497 9.135 25.134 7.498 27.243 6.971C27.688 6.859 28 6.459 28 6C28 5.541 27.688 5.141 27.242 5.03ZM22 8.478C21.371 7.476 20.524 6.629 19.522 6C20.524 5.371 21.371 4.525 22 3.523C22.629 4.525 23.476 5.371 24.477 6C23.476 6.629 22.629 7.476 22 8.478Z" fill="black"/>
<path d="M61.0002 35.0002V14.0002V6.00022C61.0002 5.66822 60.8352 5.35822 60.5612 5.17222C60.2862 4.98622 59.9372 4.94822 59.6292 5.07122L49.6292 9.07122C49.2492 9.22422 49.0002 9.59122 49.0002 10.0002C49.0002 10.4092 49.2492 10.7762 49.6282 10.9292L59.0002 14.6772V35.0002H58.0002C57.7352 35.0002 57.4802 35.1052 57.2932 35.2932L39.5002 53.0862L35.7072 49.2932C35.3162 48.9022 34.6842 48.9022 34.2932 49.2932L22.5002 61.0862L15.2072 53.7932C14.8162 53.4022 14.1842 53.4022 13.7932 53.7932L0.293244 67.2932C0.105244 67.4802 0.000244141 67.7342 0.000244141 68.0002V69.0002H2.00024V68.4142L14.5002 55.9142L21.7932 63.2072C22.1842 63.5982 22.8162 63.5982 23.2072 63.2072L35.0002 51.4142L38.7932 55.2072C39.1842 55.5982 39.8162 55.5982 40.2072 55.2072L58.4142 37.0002H64.0002V35.0002H61.0002ZM52.6922 10.0002L59.0002 7.47722V12.5242L52.6922 10.0002Z" fill="black"/>
<path d="M9.69419 42.6219C12.4409 40.4094 17.2146 42.6815 20.067 44.0377C21.2491 44.5999 22.4104 44.9585 23.5331 45.1109C24.6756 45.2661 25.7725 45.185 26.8154 44.9149L25.9615 51.2022C25.887 51.7501 26.2708 52.2534 26.8178 52.3276L31.7723 53.0005C32.3193 53.0748 32.8234 52.6922 32.8978 52.1442L34.2055 42.5156C34.4689 42.2183 34.9089 42.0177 35.5673 41.7993C35.7797 41.7283 35.9951 41.6657 36.2105 41.6031C36.8128 41.4266 37.436 41.2438 38.0403 40.9111C38.7525 40.5194 39.3452 39.7592 39.6522 38.933L41.7182 39.2136L40.9107 45.159C40.8363 45.707 41.2201 46.2102 41.767 46.2845L46.7216 46.9574C47.2685 47.0317 47.7726 46.649 47.847 46.1011L48.9237 38.1738C49.2947 35.4419 47.374 32.9175 44.642 32.5464L38.6966 31.739L39.1004 28.7663L44.0549 29.4391C46.7868 29.8102 49.3112 27.8894 49.6823 25.1575L50.8935 16.2394C50.9679 15.6914 50.5841 15.1882 50.0371 15.1139L46.0735 14.5756C45.5265 14.5013 45.0225 14.884 44.948 15.4319L43.8714 23.3592L39.0259 22.7011C39.6532 21.8941 40.0872 20.9207 40.2343 19.8376C40.6796 16.5587 38.3752 13.5301 35.0963 13.0848C31.8174 12.6394 28.7887 14.9438 28.3434 18.2227C28.2086 19.2156 28.3294 20.1837 28.6495 21.0668C25.1681 21.5991 21.8497 23.407 19.0033 26.3678C17.7389 27.6826 16.7233 29.2381 15.741 30.7416C15.4785 31.1439 15.2173 31.5434 14.9543 31.9346C14.3615 32.8148 13.7835 33.7858 13.224 34.7251C11.8229 37.0759 10.3757 39.5063 8.44143 41.0641L8.44031 41.065C8.0098 41.4112 7.94245 42.0409 8.28866 42.4714C8.63514 42.8999 9.26553 42.9694 9.69419 42.6219ZM28.5532 32.1193L27.5554 30.8092L28.8665 29.8125L28.5532 32.1193ZM37.0775 39.1576C36.6641 39.385 36.1703 39.5288 35.6488 39.6831C35.4103 39.7526 35.1727 39.8223 34.9381 39.9004C34.8081 39.9433 34.6748 39.9958 34.5411 40.0443L34.7819 38.2716L37.5663 38.6497C37.4236 38.8685 37.2531 39.0613 37.0775 39.1576ZM44.5932 25.4755C45.1402 25.5498 45.6442 25.1672 45.7187 24.6192L46.7953 16.692L48.7771 16.9611L47.7005 24.8884C47.4779 26.5273 45.963 27.6799 44.324 27.4573L38.3786 26.6499C37.8316 26.5756 37.3275 26.9582 37.2531 27.5062L36.5802 32.4607C36.5058 33.0087 36.8896 33.5119 37.4366 33.5862L44.3729 34.5282C46.0118 34.7508 47.1644 36.2657 46.9419 37.9047L45.9998 44.841L43.0271 44.4373L43.8346 38.4919C43.909 37.9439 43.5252 37.4407 42.9782 37.3664L34.0601 36.1552C33.5131 36.0809 33.0091 36.4635 32.9346 37.0115L31.0506 50.8841L28.0778 50.4804L31.1731 27.6896C31.2275 27.2893 31.035 26.8938 30.6861 26.691C30.3365 26.4861 29.8997 26.5146 29.5768 26.7593L25.5488 29.8231C25.3373 29.9841 25.1992 30.2207 25.1634 30.4843C25.1276 30.7479 25.1974 31.0137 25.3585 31.2243L27.7503 34.3677L25.9653 35.7259L23.4271 32.39C22.4262 31.0733 22.6823 29.1876 23.9981 28.1856L30.231 23.4432C31.1038 24.247 32.219 24.8041 33.4804 24.9755C33.5071 24.9791 33.5324 24.9785 33.5592 24.9821L32.7512 30.9315L34.733 31.2007L35.5915 24.8797C36.0453 24.7778 36.4823 24.6293 36.8949 24.43L44.5932 25.4755ZM34.8262 15.0664C37.0121 15.3633 38.5483 17.3824 38.2515 19.5683C37.9546 21.7543 35.9355 23.2905 33.7495 22.9936C31.5636 22.6968 30.0274 20.6777 30.3242 18.4917C30.6211 16.3058 32.6412 14.7697 34.8262 15.0664ZM14.9419 35.7486C15.513 34.7907 16.0517 33.886 16.6132 33.051C16.8812 32.6524 17.1474 32.2455 17.415 31.8358C18.3465 30.4092 19.3098 28.9334 20.4438 27.7543C21.8822 26.2583 24.02 24.5101 26.7623 23.5706L22.786 26.596C20.5925 28.265 20.1654 31.4091 21.8344 33.6027L24.978 37.7343C25.3128 38.1744 25.9391 38.2594 26.3791 37.9246L27.9244 36.7488L27.1145 42.7121C24.8657 43.651 22.5316 42.9959 20.9257 42.2329C18.6953 41.171 15.4408 39.625 12.4186 39.6899C13.3368 38.4421 14.147 37.0838 14.9419 35.7486Z" fill="black"/>
</svg>
