<svg width="115" height="115" viewBox="0 0 115 115" fill="none" xmlns="http://www.w3.org/2000/svg">
<path d="M59.8755 10.0003H55.1249V0.5H59.8747L59.8755 10.0003ZM43.2502 107.375H50.3752V114.5H55.1249V107.375H59.8747V114.5H64.6244L64.6252 107.375H71.7502V102.625H43.2501L43.2502 107.375ZM105 55.1241V59.8739H114.5V55.1241H105ZM0.5 59.8747H10.0003V55.1241H0.5V59.8747ZM15.5102 18.8813L22.2313 25.5785L25.5799 22.2299L18.8828 15.5088L15.5102 18.8813ZM89.4211 22.2299L92.7697 25.5785L99.4908 18.8813L96.1185 15.509L89.4211 22.2299ZM86.0009 57.4988C85.9739 67.6536 80.545 77.0266 71.7509 82.1045V97.8743H43.2508V82.1045C37.4443 78.7519 33.0054 73.4599 30.7152 67.1579C28.425 60.8567 28.4297 53.9495 30.7287 47.6508C33.0268 41.3527 37.4729 36.0663 43.2842 32.7216C49.0956 29.3769 55.8994 28.1881 62.5004 29.3643C69.1015 30.5404 75.0765 34.0068 79.3747 39.1525C83.673 44.2981 86.0195 50.7943 86.0012 57.4994L86.0009 57.4988ZM81.2512 57.4988C81.2536 51.7613 79.1804 46.2172 75.4127 41.8905C71.6458 37.5638 66.4397 34.7471 60.7563 33.9607C55.0738 33.1743 49.2983 34.4713 44.4976 37.6124C39.697 40.7536 36.195 45.5263 34.6403 51.0482C33.0849 56.5709 33.5811 62.469 36.0367 67.6536C38.493 72.8383 42.7425 76.9591 48.0006 79.2539V93.1239H67.0004L67.0012 79.2539C71.2341 77.4059 74.8371 74.3641 77.3683 70.5003C79.8995 66.6365 81.2487 62.118 81.2512 57.4988Z" fill="#23D4AA"/>
</svg>
