<svg width="107" height="53" viewBox="0 0 107 53" fill="none" xmlns="http://www.w3.org/2000/svg">
<path d="M95.7722 0.50002C90.7802 0.50002 86.638 3.88246 85.4696 8.53223L63.4837 8.53297V0.500757H42.2413V8.53297H21.4238C20.2554 3.88244 16.1132 0.500757 11.1212 0.500757C5.27935 0.500757 0.5 5.2566 0.5 11.0697C0.5 16.8828 5.27935 21.6387 11.1212 21.6387C16.4318 21.6387 20.7867 17.7283 21.6364 12.7609H38.4179C22.9105 18.574 12.2897 33.6875 12.2897 50.3864V52.5H16.5378V50.3864C16.5378 34.6385 27.053 20.582 42.1349 15.9316V21.6385H63.3773V15.9309C78.4594 20.5814 88.9744 34.4265 88.9744 50.3856V52.4992H93.2225V50.3856C93.2225 33.4749 82.7074 18.5731 67.0944 12.7602H85.3636C86.2134 17.8331 90.5682 21.6379 95.8788 21.6379C101.721 21.6379 106.5 16.8821 106.5 11.069C106.5 5.25659 101.72 0.5 95.7722 0.5V0.50002ZM11.2274 17.4107C7.72242 17.4107 4.85431 14.5569 4.85431 11.069C4.85431 7.58103 7.72223 4.72722 11.2274 4.72722C14.7324 4.72722 17.6005 7.58103 17.6005 11.069C17.5998 14.5567 14.7326 17.4107 11.2274 17.4107ZM59.2353 17.4107H46.49V4.72817H59.2353V17.4107ZM95.7722 17.4107C92.2672 17.4107 89.3991 14.5569 89.3991 11.069C89.3991 7.58103 92.267 4.72722 95.7722 4.72722C99.2772 4.72722 102.145 7.58103 102.145 11.069C102.145 14.5569 99.384 17.4107 95.7722 17.4107Z" fill="#23D4AA"/>
</svg>
