<svg width="145" height="107" viewBox="0 0 145 107" fill="none" xmlns="http://www.w3.org/2000/svg">
<path fill-rule="evenodd" clip-rule="evenodd" d="M0.5 0V107H144.5V0.00531791C94.3429 -0.00298955 43.4293 0.00116418 0.5 0.00116418V0ZM5.14516 4.65217H139.855V102.348H88.7581V23.2609H135.21V18.6087H5.14516V4.65217ZM111.984 9.3086V13.9608H116.629V9.3086H111.984ZM121.274 9.3086V13.9608H125.919V9.3086H121.274ZM130.565 9.3086V13.9608H135.21V9.3086H130.565ZM5.14516 23.2609H19.0899V102.348H5.14516V23.2609ZM23.7351 23.2609H84.1116V102.348H23.7351V23.2609ZM33.0254 32.5652V37.2174H56.2419V32.5652H33.0254ZM98.0471 32.5652V37.2174H111.983V32.5652H98.0471ZM42.3104 41.8696V46.5217H65.532V41.8696H42.3104ZM98.0471 41.8696V46.5217H125.918V41.8696H98.0471ZM51.6061 51.1739V55.8261H74.8226V51.1739H51.6061ZM98.0471 51.1739V55.8261H125.918V51.1739H98.0471ZM42.3104 60.4783V65.1304H65.532V60.4783H42.3104ZM33.0254 69.7826V74.439H56.2419V69.7826H33.0254ZM98.0471 69.7826V74.4348H111.983V69.7826H98.0471ZM42.3104 79.087V83.7434H65.532V79.087H42.3104ZM98.0471 79.0911V83.739H125.918V79.0911H98.0471ZM51.6061 88.3912V93.0476H74.8226V88.3912H51.6061ZM98.0471 88.3954V93.0433H125.918V88.3954H98.0471Z" fill="#23D4AA"/>
</svg>
