<svg width="386" height="70" viewBox="0 0 386 70" fill="none" xmlns="http://www.w3.org/2000/svg">
<path fill-rule="evenodd" clip-rule="evenodd" d="M201.513 17.2654H218.218V21.2305C218.218 17.2654 218.22 17.2654 218.223 17.2654H218.228H218.238L218.263 17.2656C218.281 17.2657 218.302 17.266 218.326 17.2665C218.374 17.2673 218.434 17.2689 218.506 17.2716C218.649 17.277 218.837 17.287 219.065 17.3055C219.519 17.3424 220.138 17.4135 220.868 17.5517C222.312 17.8251 224.284 18.3781 226.295 19.5198C230.576 21.9512 234.421 26.7323 234.421 35.1278C234.421 43.5874 230.6 48.4156 226.314 50.8807C224.301 52.0383 222.325 52.5998 220.877 52.8774C220.145 53.0177 219.525 53.09 219.069 53.1274C218.841 53.1462 218.651 53.1564 218.508 53.1619C218.436 53.1647 218.375 53.1662 218.327 53.1671C218.303 53.1676 218.281 53.1679 218.263 53.168L218.238 53.1682H218.228L218.223 53.1683C218.22 53.1683 218.218 53.1683 218.218 49.1889V53.1683H201.513C201.513 48.7727 205.076 45.2095 209.472 45.2095H218.188C218.192 45.2094 218.197 45.2092 218.203 45.209C218.238 45.2076 218.312 45.2041 218.417 45.1954C218.63 45.1779 218.965 45.1404 219.379 45.061C220.223 44.8992 221.303 44.5818 222.346 43.9817C224.172 42.9316 226.462 40.7293 226.462 35.1278C226.462 29.6403 224.195 27.4798 222.365 26.4405C221.319 25.8467 220.236 25.5321 219.388 25.3716C218.972 25.2929 218.636 25.2556 218.422 25.2382C218.315 25.2296 218.241 25.226 218.205 25.2247C218.198 25.2244 218.193 25.2243 218.189 25.2241H209.472V38.7098C205.076 38.7098 201.513 35.1466 201.513 30.7511V17.2654Z" fill="white"/>
<path d="M142.67 25.1228V31.0075H154.693V31.5574C154.693 35.4645 151.525 38.6319 147.618 38.6319H142.67V45.1306H153.018C156.925 45.1306 160.092 48.2979 160.092 52.205V53.1643H142.67H139.888C135.981 53.1643 132.814 49.997 132.814 46.0899V45.1306V24.1635C132.814 20.2564 135.981 17.0891 139.888 17.0891H160.092V18.0484C160.092 21.9555 156.925 25.1228 153.018 25.1228H142.67Z" fill="white"/>
<path d="M176.981 25.1228V31.0075H189.004V31.5574C189.004 35.4645 185.836 38.6319 181.929 38.6319H176.981V45.1306H187.329C191.236 45.1306 194.403 48.2979 194.403 52.205V53.1643H176.981H174.199C170.292 53.1643 167.125 49.997 167.125 46.0899V45.1306V24.1635C167.125 20.2564 170.292 17.0891 174.199 17.0891H194.403V18.0484C194.403 21.9555 191.236 25.1228 187.329 25.1228H176.981Z" fill="white"/>
<path d="M93.5508 25.1835C93.5508 20.6639 97.2147 17 101.734 17H125.739C125.739 21.5196 122.075 25.1835 117.556 25.1835H93.5508Z" fill="#23D4AA"/>
<path d="M125.739 38.6662C125.739 34.3684 122.255 30.8843 117.957 30.8843H93.5505C93.5505 35.1821 97.0346 38.6662 101.332 38.6662H125.739Z" fill="white"/>
<path d="M93.5508 53.1688C93.5508 48.6756 97.1932 45.0332 101.686 45.0332H125.739C125.739 49.5264 122.097 53.1688 117.604 53.1688H93.5508Z" fill="white"/>
<path d="M249.52 48.8793H261.791V52.6659H244.944V17H249.52V48.8793Z" fill="#23D4AA"/>
<path fill-rule="evenodd" clip-rule="evenodd" d="M292.953 44.7344H292.99L295.806 52.6658H300.634L288.011 17.2046H282.731L270.058 52.6658H274.814L281.295 34.3045L285.269 23.0453L285.288 23.1004L285.346 22.9357L291.682 40.9478H291.611L292.953 44.7344Z" fill="#23D4AA"/>
<path d="M327.226 34.7941C328.5 34.9988 329.657 35.5276 330.696 36.3804C331.769 37.2333 332.607 38.2908 333.21 39.553C333.847 40.8152 334.166 42.1627 334.166 43.5955C334.166 45.4035 333.713 47.041 332.808 48.5079C331.903 49.9406 330.579 51.0835 328.835 51.9363C327.125 52.755 325.097 53.1644 322.75 53.1644H309.675V17.4985H322.247C324.628 17.4985 326.656 17.9078 328.332 18.7266C330.009 19.5112 331.266 20.5858 332.104 21.9503C332.942 23.3149 333.361 24.85 333.361 26.5557C333.361 28.6707 332.791 30.4276 331.651 31.8262C330.545 33.1908 329.07 34.1801 327.226 34.7941ZM314.252 32.9008H321.946C324.091 32.9008 325.751 32.3891 326.924 31.3657C328.098 30.3423 328.684 28.9266 328.684 27.1186C328.684 25.3105 328.098 23.8948 326.924 22.8714C325.751 21.848 324.058 21.3363 321.845 21.3363H314.252V32.9008ZM322.348 49.3266C324.628 49.3266 326.405 48.7808 327.679 47.6891C328.953 46.5975 329.59 45.0794 329.59 43.135C329.59 41.1564 328.919 39.6042 327.578 38.4784C326.237 37.3186 324.443 36.7386 322.197 36.7386H314.252V49.3266H322.348Z" fill="#23D4AA"/>
<path d="M355.951 53.325C351.977 53.325 348.722 52.4067 346.185 50.5704C343.691 48.6914 342.296 46.1506 342 42.9478H346.566C346.777 44.9122 347.686 46.5136 349.293 47.752C350.941 48.9478 353.14 49.5456 355.888 49.5456C358.298 49.5456 360.179 48.9691 361.532 47.8161C362.927 46.6631 363.624 45.2325 363.624 43.5243C363.624 42.3285 363.244 41.3463 362.483 40.5777C361.722 39.809 360.75 39.2111 359.566 38.7841C358.424 38.3143 356.86 37.8232 354.873 37.3108C352.294 36.6275 350.202 35.9442 348.595 35.2609C346.989 34.5777 345.615 33.574 344.473 32.2502C343.374 30.8836 342.824 29.0688 342.824 26.8054C342.824 25.0972 343.332 23.5172 344.346 22.0652C345.361 20.6132 346.798 19.4602 348.659 18.6061C350.519 17.752 352.633 17.325 355 17.325C358.72 17.325 361.722 18.2858 364.005 20.2076C366.288 22.0866 367.514 24.6915 367.683 28.0225H363.244C363.117 25.9727 362.314 24.3285 360.834 23.0901C359.397 21.809 357.41 21.1684 354.873 21.1684C352.633 21.1684 350.815 21.7022 349.42 22.7698C348.024 23.8374 347.327 25.1613 347.327 26.7414C347.327 28.1079 347.728 29.2396 348.532 30.1364C349.377 30.9905 350.413 31.6737 351.639 32.1862C352.865 32.656 354.514 33.1897 356.585 33.7875C359.08 34.4708 361.067 35.1328 362.546 35.7734C364.026 36.414 365.294 37.3535 366.351 38.5919C367.408 39.8303 367.958 41.4745 368 43.5243C368 45.4033 367.493 47.0901 366.478 48.5848C365.463 50.0367 364.047 51.1898 362.229 52.0438C360.411 52.8979 358.319 53.325 355.951 53.325Z" fill="#23D4AA"/>
<path d="M377.061 53.0796C381.75 53.0796 385.551 49.2788 385.551 44.5903H384.489C379.801 44.5903 376 48.3911 376 53.0796H377.061Z" fill="white"/>
<path d="M0 20C0 8.9543 8.9543 0 20 0H69.5825V49.5825C69.5825 60.6282 60.6282 69.5825 49.5825 69.5825H0V20Z" fill="#23D4AA"/>
<path d="M11.2495 23.4438C11.2495 18.9242 14.9134 15.2603 19.433 15.2603H43.4381C43.4381 19.7799 39.7742 23.4438 35.2545 23.4438H11.2495Z" fill="black"/>
<path d="M43.4383 36.9264C43.4383 32.6286 39.9543 29.1445 35.6564 29.1445H11.2495C11.2495 33.4423 14.7336 36.9264 19.0314 36.9264H43.4383Z" fill="white"/>
<path d="M11.2495 51.4291C11.2495 46.9359 14.8919 43.2935 19.3851 43.2935H43.4383C43.4383 47.7866 39.7958 51.4291 35.3027 51.4291H11.2495Z" fill="white"/>
<path d="M51.0612 51.4894C55.7497 51.4894 59.5505 47.6886 59.5505 43L-nan -nanL59.5505 43L58.4894 43C53.8008 43 50 46.8008 50 51.4894L-nan -nanL50 51.4894L51.0612 51.4894Z" fill="#202327"/>
</svg>
