<svg width="70" height="70" viewBox="0 0 70 70" fill="none" xmlns="http://www.w3.org/2000/svg">
<path d="M0 20C0 8.9543 8.9543 0 20 0L69.5825 0V49.5825C69.5825 60.6282 60.6282 69.5825 49.5825 69.5825H0L0 20Z" fill="#23D4AA"/>
<path d="M11.2495 23.4438C11.2495 18.9242 14.9134 15.2603 19.4331 15.2603H43.4381C43.4381 19.7799 39.7742 23.4438 35.2546 23.4438H11.2495Z" fill="#202327"/>
<path d="M43.4385 36.9265C43.4385 32.6287 39.9544 29.1446 35.6566 29.1446H11.2497C11.2497 33.4424 14.7337 36.9265 19.0316 36.9265H43.4385Z" fill="white"/>
<path d="M11.2495 51.4291C11.2495 46.9359 14.892 43.2935 19.3851 43.2935H43.4383C43.4383 47.7866 39.7959 51.4291 35.3027 51.4291H11.2495Z" fill="white"/>
<path d="M51.0612 51.4894C55.7497 51.4894 59.5505 47.6886 59.5505 43L58.4894 43C53.8008 43 50 46.8008 50 51.4894V51.4894L51.0612 51.4894Z" fill="#202327"/>
</svg>
