<svg width="350" height="70" viewBox="0 0 350 70" fill="none" xmlns="http://www.w3.org/2000/svg">
<path fill-rule="evenodd" clip-rule="evenodd" d="M201.513 16.9404H218.218V20.9055C218.218 16.9404 218.22 16.9404 218.223 16.9404L218.228 16.9404L218.238 16.9404L218.263 16.9406C218.281 16.9407 218.302 16.941 218.326 16.9415C218.374 16.9423 218.435 16.9439 218.506 16.9466C218.649 16.952 218.837 16.962 219.065 16.9805C219.519 17.0174 220.138 17.0885 220.868 17.2267C222.312 17.5001 224.285 18.0531 226.295 19.1948C230.577 21.6262 234.421 26.4073 234.421 34.8028C234.421 43.2624 230.6 48.0906 226.314 50.5557C224.301 51.7134 222.325 52.2748 220.877 52.5524C220.146 52.6927 219.525 52.765 219.069 52.8024C218.841 52.8212 218.651 52.8314 218.508 52.8369C218.436 52.8397 218.376 52.8413 218.327 52.8421C218.303 52.8426 218.282 52.8429 218.263 52.843L218.238 52.8432L218.228 52.8433L218.223 52.8433C218.221 52.8433 218.218 52.8433 218.218 48.8639V52.8433H201.513V52.8433C201.513 48.4478 205.076 44.8845 209.472 44.8845H218.189C218.192 44.8844 218.197 44.8842 218.203 44.884C218.239 44.8826 218.312 44.8791 218.418 44.8704C218.63 44.8529 218.965 44.8154 219.379 44.736C220.223 44.5742 221.303 44.2568 222.346 43.6568C224.172 42.6066 226.462 40.4043 226.462 34.8028C226.462 29.3153 224.195 27.1548 222.365 26.1155C221.319 25.5218 220.236 25.2071 219.388 25.0466C218.972 24.9679 218.636 24.9306 218.422 24.9132C218.315 24.9046 218.241 24.9011 218.205 24.8997C218.198 24.8994 218.193 24.8993 218.189 24.8991H209.472V38.3848V38.3848C205.076 38.3848 201.513 34.8216 201.513 30.4261V16.9404Z" fill="white"/>
<path d="M142.67 24.7979V30.6826H154.693V31.2325C154.693 35.1397 151.525 38.307 147.618 38.307H142.67V44.8057H153.018C156.925 44.8057 160.092 47.973 160.092 51.8801V52.8395H142.67H139.888C135.981 52.8395 132.814 49.6721 132.814 45.765V44.8057V23.8386C132.814 19.9315 135.981 16.7642 139.888 16.7642H160.092V17.7235C160.092 21.6306 156.925 24.7979 153.018 24.7979H142.67Z" fill="white"/>
<path d="M176.981 24.7979V30.6826H189.004V31.2325C189.004 35.1396 185.836 38.307 181.929 38.307H176.981V44.8057H187.329C191.236 44.8057 194.403 47.973 194.403 51.8801V52.8394H176.981H174.199C170.292 52.8394 167.125 49.6721 167.125 45.765V44.8057V23.8386C167.125 19.9315 170.292 16.7642 174.199 16.7642H194.403V17.7235C194.403 21.6306 191.236 24.7979 187.329 24.7979H176.981Z" fill="white"/>
<path d="M93.5508 24.8587C93.5508 20.339 97.2147 16.6751 101.734 16.6751H125.739V16.6751C125.739 21.1948 122.075 24.8587 117.556 24.8587H93.5508V24.8587Z" fill="#23D4AA"/>
<path d="M125.739 38.3413C125.739 34.0435 122.255 30.5594 117.957 30.5594H93.5505V30.5594C93.5505 34.8572 97.0345 38.3413 101.332 38.3413H125.739V38.3413Z" fill="white"/>
<path d="M93.5508 52.8439C93.5508 48.3508 97.1932 44.7083 101.686 44.7083H125.74V44.7083C125.74 49.2015 122.097 52.8439 117.604 52.8439H93.5508V52.8439Z" fill="white"/>
<path d="M249.52 49.0529H261.791V52.8395H244.944V17.1736H249.52V49.0529Z" fill="#23D4AA"/>
<path fill-rule="evenodd" clip-rule="evenodd" d="M292.953 44.9081H292.99L295.806 52.8395H300.634L288.011 17.3783H282.731L270.058 52.8395H274.814L281.295 34.4782L285.269 23.219L285.288 23.2741L285.346 23.1094L291.682 41.1215H291.611L292.953 44.9081Z" fill="#23D4AA"/>
<path d="M327.226 34.4693C328.5 34.6739 329.656 35.2027 330.696 36.0555C331.769 36.9084 332.607 37.9659 333.21 39.2281C333.847 40.4903 334.166 41.8378 334.166 43.2706C334.166 45.0786 333.713 46.7161 332.808 48.183C331.903 49.6158 330.578 50.7586 328.835 51.6114C327.125 52.4301 325.097 52.8395 322.75 52.8395H309.675V17.1736H322.247C324.628 17.1736 326.656 17.583 328.332 18.4017C330.008 19.1863 331.266 20.2609 332.104 21.6254C332.942 22.99 333.361 24.5251 333.361 26.2308C333.361 28.3458 332.791 30.1027 331.651 31.5014C330.545 32.8659 329.07 33.8552 327.226 34.4693ZM314.252 32.5759H321.946C324.091 32.5759 325.751 32.0642 326.924 31.0408C328.098 30.0174 328.684 28.6017 328.684 26.7937C328.684 24.9856 328.098 23.5699 326.924 22.5465C325.751 21.5231 324.058 21.0114 321.845 21.0114H314.252V32.5759ZM322.348 49.0017C324.628 49.0017 326.405 48.4559 327.678 47.3642C328.952 46.2726 329.589 44.7545 329.589 42.8101C329.589 40.8315 328.919 39.2793 327.578 38.1535C326.237 36.9937 324.443 36.4137 322.197 36.4137H314.252V49.0017H322.348Z" fill="#23D4AA"/>
<path d="M341.511 52.7548C346.199 52.7548 350 48.954 350 44.2655V44.2655L348.939 44.2655C344.25 44.2655 340.449 48.0663 340.449 52.7548V52.7548L341.511 52.7548Z" fill="white"/>
<path d="M0 20C0 8.9543 8.9543 0 20 0L69.5825 0V49.5825C69.5825 60.6282 60.6282 69.5825 49.5825 69.5825H0L0 20Z" fill="#23D4AA"/>
<path d="M11.2495 23.4438C11.2495 18.9242 14.9134 15.2603 19.4331 15.2603H43.4381V15.2603C43.4381 19.7799 39.7742 23.4438 35.2546 23.4438H11.2495V23.4438Z" fill="#202327"/>
<path d="M43.4385 36.9265C43.4385 32.6287 39.9544 29.1446 35.6566 29.1446H11.2497V29.1446C11.2497 33.4424 14.7337 36.9265 19.0316 36.9265H43.4385V36.9265Z" fill="white"/>
<path d="M11.2495 51.4291C11.2495 46.9359 14.892 43.2935 19.3851 43.2935H43.4383V43.2935C43.4383 47.7866 39.7959 51.4291 35.3027 51.4291H11.2495V51.4291Z" fill="white"/>
<path d="M51.0612 51.4894C55.7497 51.4894 59.5505 47.6886 59.5505 43V43L58.4894 43C53.8008 43 50 46.8008 50 51.4894V51.4894L51.0612 51.4894Z" fill="#202327"/>
</svg>
