<svg width="100" height="90" viewBox="0 0 60 60" fill="none" xmlns="http://www.w3.org/2000/svg">
<path d="M59 3H1C0.4 3 0 3.4 0 4V45C0 45.6 0.4 46 1 46H29V51H26C25.4 51 25 51.4 25 52V56C25 56.6 25.4 57 26 57H34C34.6 57 35 56.6 35 56V52C35 51.4 34.6 51 34 51H31V46H59C59.6 46 60 45.6 60 45V4C60 3.4 59.6 3 59 3ZM33 55H27V53H33V55ZM58 5V38H2V5H58ZM2 44V40H58V44H2Z" fill="black"/>
<path d="M6 20H20C20.6 20 21 19.6 21 19V10C21 9.4 20.6 9 20 9H6C5.4 9 5 9.4 5 10V19C5 19.6 5.4 20 6 20ZM7 11H19V18H7V11Z" fill="black"/>
<path d="M38.6334 28.0272L35.4245 29.7115L33.3855 25.8274L30.4011 28.0361L29.9087 15.3054L40.1072 22.9411L36.5946 24.143L38.6334 28.0272ZM35.8798 28.2498L37.1717 27.5718L35.0489 23.5272L37.8187 22.5795L31.0785 17.5331L31.4037 25.947L33.7567 24.2055L35.8798 28.2498Z" fill="black"/>
<path d="M21 22H5V24H21V22Z" fill="black"/>
<path d="M21 27H5V29H21V27Z" fill="black"/>
</svg>
