<svg width="115" height="115" viewBox="0 0 411 288" fill="none" xmlns="http://www.w3.org/2000/svg">
<path d="M11.312 107.312L33.656 84.968L56 107.312L67.312 96L44.968 73.656L67.312 51.312L56 40L33.656 62.344L11.312 40L0 51.312L22.344 73.656L0 96L11.312 107.312Z" fill="black"/>
<path d="M278.312 231.312L300.656 208.968L323 231.312L334.312 220L311.968 197.656L334.312 175.312L323 164L300.656 186.344L278.312 164L267 175.312L289.344 197.656L267 220L278.312 231.312Z" fill="black"/>
<path d="M269.92 86.6718L252.248 104.344L263.56 115.656L301.216 77.9998L263.56 40.3438L252.248 51.6558L271.16 70.5677C67.6 82.2397 34.32 282.696 34 284.784L49.816 287.216C50.112 285.272 81.032 99.0398 269.92 86.6718Z" fill="black"/>
<path d="M157 64C174.648 64 189 49.648 189 32C189 14.352 174.648 0 157 0C139.352 0 125 14.352 125 32C125 49.648 139.352 64 157 64ZM157 16C165.824 16 173 23.176 173 32C173 40.824 165.824 48 157 48C148.176 48 141 40.824 141 32C141 23.176 148.176 16 157 16Z" fill="black"/>
<path d="M379 104C396.648 104 411 89.648 411 72C411 54.352 396.648 40 379 40C361.352 40 347 54.352 347 72C347 89.648 361.352 104 379 104ZM379 56C387.824 56 395 63.176 395 72C395 80.824 387.824 88 379 88C370.176 88 363 80.824 363 72C363 63.176 370.176 56 379 56Z" fill="black"/>
<path d="M157 203C139.352 203 125 217.352 125 235C125 252.648 139.352 267 157 267C174.648 267 189 252.648 189 235C189 217.352 174.648 203 157 203ZM157 251C148.176 251 141 243.824 141 235C141 226.176 148.176 219 157 219C165.824 219 173 226.176 173 235C173 243.824 165.824 251 157 251Z" fill="black"/>
</svg>
