<svg width="100" height="100" viewBox="0 0 49 60" fill="none" xmlns="http://www.w3.org/2000/svg">
<g clip-path="url(#clip0_298_995)">
<path d="M30.2167 50H1.63333V12H30.2167V16H31.85V3C31.85 1.3 30.7883 0 29.4 0H2.45C1.06167 0 0 1.3 0 3V57C0 58.7 1.06167 60 2.45 60H29.4C30.7883 60 31.85 58.7 31.85 57V44H30.2167V50ZM2.45 2H29.4C29.89 2 30.2167 2.4 30.2167 3V10H1.63333V3C1.63333 2.4 1.96 2 2.45 2ZM29.4 58H2.45C1.96 58 1.63333 57.6 1.63333 57V52H30.2167V57C30.2167 57.6 29.89 58 29.4 58Z" fill="black"/>
<path d="M17.9667 5H13.0667V7H17.9667V5Z" fill="black"/>
<path d="M17.9667 54H13.0667V56H17.9667V54Z" fill="black"/>
<path d="M46.55 0H35.1167V2H46.55C47.04 2 47.3667 2.4 47.3667 3V10H35.1167V12H47.3667V50H35.1167V52H47.3667V57C47.3667 57.6 47.04 58 46.55 58H35.1167V60H46.55C47.9384 60 49 58.7 49 57V3C49 1.3 47.9384 0 46.55 0Z" fill="black"/>
<path d="M29.3999 0H17.9666V2H29.3999C29.8899 2 30.2166 2.4 30.2166 3V10H17.9666V12H30.2166V50H17.9666V52H30.2166V57C30.2166 57.6 29.8899 58 29.3999 58H17.9666V60H29.3999C30.7882 60 31.8499 58.7 31.8499 57V3C31.8499 1.3 30.7882 0 29.3999 0Z" fill="black"/>
<path d="M38.3834 54H35.1167V56H38.3834V54Z" fill="black"/>
<path d="M38.3834 5H35.1167V7H38.3834V5Z" fill="black"/>
<path d="M27.7667 24H9.80005V26H27.7667V24Z" fill="black"/>
<path d="M8.1666 24H3.2666V26H8.1666V24Z" fill="black"/>
<path d="M27.7667 34H9.80005V36H27.7667V34Z" fill="black"/>
<path d="M8.1666 34H3.2666V36H8.1666V34Z" fill="black"/>
<path d="M21.2333 29H3.2666V31H21.2333V29Z" fill="black"/>
<path d="M27.7667 29H22.8667V31H27.7667V29Z" fill="black"/>
</g>
<defs>
<clipPath id="clip0_298_995">
<rect width="49" height="60" fill="white"/>
</clipPath>
</defs>
</svg>
