<svg width="134" height="19" viewBox="0 0 134 19" fill="none" xmlns="http://www.w3.org/2000/svg">
<path fill-rule="evenodd" clip-rule="evenodd" d="M56.0676 0.137756H64.743V2.19696C64.743 0.137756 64.7442 0.137757 64.7454 0.137758L64.7479 0.137762L64.7534 0.137781L64.7662 0.137868C64.7756 0.137952 64.7865 0.138094 64.799 0.138323C64.8241 0.138781 64.8553 0.139591 64.8925 0.140996C64.9666 0.143804 65.0645 0.149006 65.1829 0.158605C65.4188 0.177744 65.7401 0.214705 66.1192 0.28647C66.8691 0.428421 67.8934 0.71564 68.9375 1.30854C71.161 2.57125 73.1575 5.05418 73.1575 9.41419C73.1575 13.8075 71.1731 16.3149 68.9473 17.5951C67.9021 18.1963 66.8759 18.4878 66.124 18.632C65.7439 18.7049 65.4217 18.7424 65.185 18.7618C65.0663 18.7716 64.968 18.7769 64.8935 18.7797C64.8562 18.7812 64.8247 18.782 64.7995 18.7825C64.7869 18.7827 64.7759 18.7829 64.7665 18.7829L64.7535 18.783L64.7479 18.783L64.7454 18.783C64.7442 18.7831 64.743 18.7831 64.743 16.7165V18.7831H56.0676C56.0676 16.5004 57.9181 14.6499 60.2008 14.6499H64.7276C64.7295 14.6498 64.732 14.6497 64.7351 14.6496C64.7536 14.6489 64.7916 14.647 64.8465 14.6425C64.957 14.6335 65.1307 14.614 65.3457 14.5727C65.784 14.4887 66.3448 14.3239 66.8866 14.0123C67.8347 13.4669 69.0243 12.3232 69.0243 9.41419C69.0243 6.56436 67.8468 5.44237 66.8964 4.90262C66.3535 4.59429 65.7908 4.4309 65.3505 4.34754C65.1345 4.30665 64.9599 4.28729 64.8486 4.27826C64.7934 4.27378 64.7549 4.27194 64.7361 4.27123C64.7327 4.2711 64.73 4.27101 64.728 4.27095H60.2008V11.2744C57.9181 11.2744 56.0676 9.42392 56.0676 7.14122V0.137756Z" fill="white"/>
<path d="M25.5094 4.21842V7.27445H31.7528V7.56006C31.7528 9.58913 30.108 11.234 28.0789 11.234H25.5094V14.6089H30.883C32.9121 14.6089 34.557 16.2538 34.557 18.2829V18.7811H25.5094H24.0646C22.0355 18.7811 20.3906 17.1362 20.3906 15.1071V14.6089V3.72021C20.3906 1.69114 22.0355 0.0462646 24.0646 0.0462646H34.557V0.544467C34.557 2.57353 32.9121 4.21842 30.883 4.21842H25.5094Z" fill="white"/>
<path d="M43.3277 4.21842V7.27445H49.5712V7.56006C49.5712 9.58913 47.9263 11.234 45.8972 11.234H43.3277V14.6089H48.7014C50.7305 14.6089 52.3753 16.2538 52.3753 18.2829V18.7811H43.3277H41.8829C39.8539 18.7811 38.209 17.1362 38.209 15.1071V14.6089V3.72021C38.209 1.69114 39.8539 0.0462646 41.8829 0.0462646H52.3753V0.544467C52.3753 2.57353 50.7305 4.21842 48.7014 4.21842H43.3277Z" fill="white"/>
<path d="M0.000244141 4.24992C0.000244141 1.90276 1.903 0 4.25017 0H16.7166C16.7166 2.34717 14.8139 4.24992 12.4667 4.24992H0.000244141Z" fill="#021720"/>
<path d="M16.7166 11.2519C16.7166 9.01988 14.9072 7.21051 12.6752 7.21051H8.2016e-05C8.2016e-05 9.44248 1.80945 11.2519 4.04143 11.2519H16.7166Z" fill="white"/>
<path d="M0 18.7833C0 16.4499 1.89162 14.5583 4.22504 14.5583H16.7165C16.7165 16.8917 14.8249 18.7833 12.4914 18.7833H0Z" fill="white"/>
<path d="M80.9991 16.8146H87.3714V18.7811H78.6226V0.25885H80.9991V16.8146Z" fill="#021720"/>
<path fill-rule="evenodd" clip-rule="evenodd" d="M103.555 14.6621H103.574L105.036 18.7811H107.544L100.988 0.365173H98.2463L91.665 18.7811H94.1347L99.564 3.39834L99.5742 3.42713L99.6043 3.34149L102.895 12.6956H102.858L103.555 14.6621Z" fill="#021720"/>
<path d="M121.354 9.24093C122.015 9.34723 122.616 9.62183 123.156 10.0647C123.713 10.5076 124.148 11.0568 124.462 11.7123C124.792 12.3678 124.958 13.0676 124.958 13.8117C124.958 14.7507 124.723 15.601 124.253 16.3628C123.783 17.1069 123.095 17.7004 122.189 18.1433C121.301 18.5685 120.248 18.7811 119.029 18.7811H112.239V0.25885H118.768C120.004 0.25885 121.058 0.471444 121.928 0.896631C122.799 1.3041 123.452 1.86216 123.887 2.57081C124.322 3.27945 124.54 4.07668 124.54 4.96248C124.54 6.06089 124.244 6.97327 123.652 7.69963C123.077 8.40827 122.311 8.92204 121.354 9.24093ZM114.616 8.25769H118.612C119.726 8.25769 120.588 7.99194 121.197 7.46046C121.806 6.92898 122.111 6.19376 122.111 5.2548C122.111 4.31585 121.806 3.58063 121.197 3.04914C120.588 2.51766 119.708 2.25192 118.559 2.25192H114.616V8.25769ZM118.82 16.788C120.004 16.788 120.927 16.5045 121.589 15.9376C122.25 15.3707 122.581 14.5823 122.581 13.5725C122.581 12.545 122.233 11.7389 121.537 11.1543C120.84 10.5519 119.909 10.2508 118.742 10.2508H114.616V16.788H118.82Z" fill="#021720"/>
<path d="M128.772 18.7371C131.207 18.7371 133.181 16.7632 133.181 14.3283L132.63 14.3283C130.195 14.3283 128.221 16.3022 128.221 18.7371L128.772 18.7371Z" fill="white"/>
</svg>
