<svg width="292" height="37" viewBox="0 0 292 37" fill="none" xmlns="http://www.w3.org/2000/svg">
<path fill-rule="evenodd" clip-rule="evenodd" d="M107.962 0.265381H124.667V4.23048C124.667 0.26538 124.669 0.265381 124.672 0.265381H124.677H124.687L124.712 0.265579C124.73 0.265679 124.751 0.265979 124.775 0.266479C124.823 0.267279 124.883 0.26888 124.955 0.27158C125.098 0.27698 125.286 0.286981 125.514 0.305481C125.968 0.342381 126.587 0.41348 127.317 0.55168C128.761 0.82508 130.733 1.37808 132.744 2.51978C137.025 4.95118 140.87 9.73228 140.87 18.1278C140.87 26.5874 137.049 31.4156 132.763 33.8807C130.75 35.0383 128.774 35.5998 127.326 35.8774C126.594 36.0177 125.974 36.09 125.518 36.1274C125.29 36.1462 125.1 36.1564 124.957 36.1619C124.885 36.1647 124.824 36.1662 124.776 36.1671C124.752 36.1676 124.73 36.1679 124.712 36.168L124.687 36.1682H124.677L124.672 36.1683C124.669 36.1683 124.667 36.1683 124.667 32.1889V36.1683H107.962C107.962 31.7727 111.525 28.2095 115.921 28.2095H124.637C124.641 28.2094 124.646 28.2092 124.652 28.209C124.687 28.2076 124.761 28.2041 124.866 28.1954C125.079 28.1779 125.414 28.1404 125.828 28.061C126.672 27.8992 127.752 27.5818 128.795 26.9817C130.621 25.9316 132.911 23.7293 132.911 18.1278C132.911 12.6403 130.644 10.4798 128.814 9.44048C127.768 8.84668 126.685 8.53208 125.837 8.37158C125.421 8.29288 125.085 8.25558 124.871 8.23818C124.764 8.22958 124.69 8.22598 124.654 8.22468C124.647 8.22438 124.642 8.22428 124.638 8.22408H115.921V21.7098C111.525 21.7098 107.962 18.1466 107.962 13.7511V0.265381Z" fill="white"/>
<path d="M49.1194 8.12281V14.0075H61.1424V14.5574C61.1424 18.4645 57.9744 21.6319 54.0674 21.6319H49.1194V28.1306H59.4674C63.3744 28.1306 66.5414 31.2979 66.5414 35.205V36.1643H49.1194H46.3374C42.4304 36.1643 39.2634 32.997 39.2634 29.0899V28.1306V7.16351C39.2634 3.25641 42.4304 0.0891113 46.3374 0.0891113H66.5414V1.04841C66.5414 4.95551 63.3744 8.12281 59.4674 8.12281H49.1194Z" fill="white"/>
<path d="M83.4305 8.12281V14.0075H95.4535V14.5574C95.4535 18.4645 92.2855 21.6319 88.3785 21.6319H83.4305V28.1306H93.7785C97.6855 28.1306 100.852 31.2979 100.852 35.205V36.1643H83.4305H80.6485C76.7415 36.1643 73.5745 32.997 73.5745 29.0899V28.1306V7.16351C73.5745 3.25641 76.7415 0.0891113 80.6485 0.0891113H100.852V1.04841C100.852 4.95551 97.6855 8.12281 93.7785 8.12281H83.4305Z" fill="white"/>
<path d="M0.000244141 8.1835C0.000244141 3.6639 3.66415 0 8.18345 0H32.1884C32.1884 4.5196 28.5244 8.1835 24.0054 8.1835H0.000244141Z" fill="#021720"/>
<path d="M32.1884 21.6662C32.1884 17.3684 28.7044 13.8843 24.4064 13.8843H0C0 18.1821 3.4841 21.6662 7.7814 21.6662H32.1884Z" fill="white"/>
<path d="M0.000244141 36.1688C0.000244141 31.6756 3.64264 28.0332 8.13554 28.0332H32.1885C32.1885 32.5264 28.5465 36.1688 24.0535 36.1688H0.000244141Z" fill="white"/>
<path d="M155.97 31.8793H168.241V35.6659H151.394V0H155.97V31.8793Z" fill="#021720"/>
<path fill-rule="evenodd" clip-rule="evenodd" d="M199.403 27.7344H199.44L202.256 35.6658H207.084L194.461 0.20459H189.181L176.508 35.6658H181.264L187.745 17.3045L191.719 6.04529L191.738 6.10039L191.796 5.93569L198.132 23.9478H198.061L199.403 27.7344Z" fill="#021720"/>
<path d="M233.676 17.7941C234.95 17.9988 236.107 18.5276 237.146 19.3804C238.219 20.2333 239.057 21.2908 239.66 22.553C240.297 23.8152 240.616 25.1627 240.616 26.5955C240.616 28.4035 240.163 30.041 239.258 31.5079C238.353 32.9406 237.029 34.0835 235.285 34.9363C233.575 35.755 231.547 36.1644 229.2 36.1644H216.125V0.498535H228.697C231.078 0.498535 233.106 0.907835 234.782 1.72663C236.459 2.51123 237.716 3.58583 238.554 4.95033C239.392 6.31493 239.811 7.85003 239.811 9.55573C239.811 11.6707 239.241 13.4276 238.101 14.8262C236.995 16.1908 235.52 17.1801 233.676 17.7941ZM220.702 15.9008H228.396C230.541 15.9008 232.201 15.3891 233.374 14.3657C234.548 13.3423 235.134 11.9266 235.134 10.1186C235.134 8.31054 234.548 6.89484 233.374 5.87144C232.201 4.84804 230.508 4.33633 228.295 4.33633H220.702V15.9008ZM228.798 32.3266C231.078 32.3266 232.855 31.7808 234.129 30.6891C235.403 29.5975 236.04 28.0794 236.04 26.135C236.04 24.1564 235.369 22.6042 234.028 21.4784C232.687 20.3186 230.893 19.7386 228.647 19.7386H220.702V32.3266H228.798Z" fill="#021720"/>
<path d="M262.4 36.325C258.426 36.325 255.171 35.4067 252.634 33.5704C250.14 31.6914 248.745 29.1506 248.449 25.9478H253.015C253.226 27.9122 254.135 29.5136 255.742 30.752C257.39 31.9478 259.589 32.5456 262.337 32.5456C264.747 32.5456 266.628 31.9691 267.981 30.8161C269.376 29.6631 270.073 28.2325 270.073 26.5243C270.073 25.3285 269.693 24.3463 268.932 23.5777C268.171 22.809 267.199 22.2111 266.015 21.7841C264.873 21.3143 263.309 20.8232 261.322 20.3108C258.743 19.6275 256.651 18.9442 255.044 18.2609C253.438 17.5777 252.064 16.574 250.922 15.2502C249.823 13.8836 249.273 12.0688 249.273 9.80535C249.273 8.09715 249.781 6.51715 250.795 5.06515C251.81 3.61315 253.247 2.46015 255.108 1.60605C256.968 0.751952 259.082 0.324951 261.449 0.324951C265.169 0.324951 268.171 1.28575 270.454 3.20755C272.737 5.08655 273.963 7.69145 274.132 11.0225H269.693C269.566 8.97265 268.763 7.32845 267.283 6.09005C265.846 4.80895 263.859 4.16835 261.322 4.16835C259.082 4.16835 257.264 4.70215 255.869 5.76975C254.473 6.83735 253.776 8.16125 253.776 9.74135C253.776 11.1079 254.177 12.2396 254.981 13.1364C255.826 13.9905 256.862 14.6737 258.088 15.1862C259.314 15.656 260.963 16.1897 263.034 16.7875C265.529 17.4708 267.516 18.1328 268.995 18.7734C270.475 19.414 271.743 20.3535 272.8 21.5919C273.857 22.8303 274.407 24.4745 274.449 26.5243C274.449 28.4033 273.942 30.0901 272.927 31.5848C271.912 33.0367 270.496 34.1898 268.678 35.0438C266.86 35.8979 264.768 36.325 262.4 36.325Z" fill="#021720"/>
<path d="M283.51 36.0796C288.199 36.0796 292 32.2788 292 27.5903H290.938C286.25 27.5903 282.449 31.3911 282.449 36.0796H283.51Z" fill="white"/>
<path fill-rule="evenodd" clip-rule="evenodd" d="M107.962 0.265381H124.667V4.23048C124.667 0.26538 124.669 0.265381 124.672 0.265381H124.677H124.687L124.712 0.265579C124.73 0.265679 124.751 0.265979 124.775 0.266479C124.823 0.267279 124.883 0.26888 124.955 0.27158C125.098 0.27698 125.286 0.286981 125.514 0.305481C125.968 0.342381 126.587 0.41348 127.317 0.55168C128.761 0.82508 130.733 1.37808 132.744 2.51978C137.025 4.95118 140.87 9.73228 140.87 18.1278C140.87 26.5874 137.049 31.4156 132.763 33.8807C130.75 35.0383 128.774 35.5998 127.326 35.8774C126.594 36.0177 125.974 36.09 125.518 36.1274C125.29 36.1462 125.1 36.1564 124.957 36.1619C124.885 36.1647 124.824 36.1662 124.776 36.1671C124.752 36.1676 124.73 36.1679 124.712 36.168L124.687 36.1682H124.677L124.672 36.1683C124.669 36.1683 124.667 36.1683 124.667 32.1889V36.1683H107.962C107.962 31.7727 111.525 28.2095 115.921 28.2095H124.637C124.641 28.2094 124.646 28.2092 124.652 28.209C124.687 28.2076 124.761 28.2041 124.866 28.1954C125.079 28.1779 125.414 28.1404 125.828 28.061C126.672 27.8992 127.752 27.5818 128.795 26.9817C130.621 25.9316 132.911 23.7293 132.911 18.1278C132.911 12.6403 130.644 10.4798 128.814 9.44048C127.768 8.84668 126.685 8.53208 125.837 8.37158C125.421 8.29288 125.085 8.25558 124.871 8.23818C124.764 8.22958 124.69 8.22598 124.654 8.22468C124.647 8.22438 124.642 8.22428 124.638 8.22408H115.921V21.7098C111.525 21.7098 107.962 18.1466 107.962 13.7511V0.265381Z" fill="white"/>
<path d="M49.1194 8.12281V14.0075H61.1424V14.5574C61.1424 18.4645 57.9744 21.6319 54.0674 21.6319H49.1194V28.1306H59.4674C63.3744 28.1306 66.5414 31.2979 66.5414 35.205V36.1643H49.1194H46.3374C42.4304 36.1643 39.2634 32.997 39.2634 29.0899V28.1306V7.16351C39.2634 3.25641 42.4304 0.0891113 46.3374 0.0891113H66.5414V1.04841C66.5414 4.95551 63.3744 8.12281 59.4674 8.12281H49.1194Z" fill="white"/>
<path d="M83.4305 8.12281V14.0075H95.4535V14.5574C95.4535 18.4645 92.2855 21.6319 88.3785 21.6319H83.4305V28.1306H93.7785C97.6855 28.1306 100.852 31.2979 100.852 35.205V36.1643H83.4305H80.6485C76.7415 36.1643 73.5745 32.997 73.5745 29.0899V28.1306V7.16351C73.5745 3.25641 76.7415 0.0891113 80.6485 0.0891113H100.852V1.04841C100.852 4.95551 97.6855 8.12281 93.7785 8.12281H83.4305Z" fill="white"/>
<path d="M0.000244141 8.1835C0.000244141 3.6639 3.66415 0 8.18345 0H32.1884C32.1884 4.5196 28.5244 8.1835 24.0054 8.1835H0.000244141Z" fill="#021720"/>
<path d="M32.1884 21.6662C32.1884 17.3684 28.7044 13.8843 24.4064 13.8843H0C0 18.1821 3.4841 21.6662 7.7814 21.6662H32.1884Z" fill="white"/>
<path d="M0.000244141 36.1688C0.000244141 31.6756 3.64264 28.0332 8.13554 28.0332H32.1885C32.1885 32.5264 28.5465 36.1688 24.0535 36.1688H0.000244141Z" fill="white"/>
<path d="M155.97 31.8793H168.241V35.6659H151.394V0H155.97V31.8793Z" fill="#021720"/>
<path fill-rule="evenodd" clip-rule="evenodd" d="M199.403 27.7344H199.44L202.256 35.6658H207.084L194.461 0.20459H189.181L176.508 35.6658H181.264L187.745 17.3045L191.719 6.04529L191.738 6.10039L191.796 5.93569L198.132 23.9478H198.061L199.403 27.7344Z" fill="#021720"/>
<path d="M233.676 17.7941C234.95 17.9988 236.107 18.5276 237.146 19.3804C238.219 20.2333 239.057 21.2908 239.66 22.553C240.297 23.8152 240.616 25.1627 240.616 26.5955C240.616 28.4035 240.163 30.041 239.258 31.5079C238.353 32.9406 237.029 34.0835 235.285 34.9363C233.575 35.755 231.547 36.1644 229.2 36.1644H216.125V0.498535H228.697C231.078 0.498535 233.106 0.907835 234.782 1.72663C236.459 2.51123 237.716 3.58583 238.554 4.95033C239.392 6.31493 239.811 7.85003 239.811 9.55573C239.811 11.6707 239.241 13.4276 238.101 14.8262C236.995 16.1908 235.52 17.1801 233.676 17.7941ZM220.702 15.9008H228.396C230.541 15.9008 232.201 15.3891 233.374 14.3657C234.548 13.3423 235.134 11.9266 235.134 10.1186C235.134 8.31054 234.548 6.89484 233.374 5.87144C232.201 4.84804 230.508 4.33633 228.295 4.33633H220.702V15.9008ZM228.798 32.3266C231.078 32.3266 232.855 31.7808 234.129 30.6891C235.403 29.5975 236.04 28.0794 236.04 26.135C236.04 24.1564 235.369 22.6042 234.028 21.4784C232.687 20.3186 230.893 19.7386 228.647 19.7386H220.702V32.3266H228.798Z" fill="#021720"/>
<path d="M262.4 36.325C258.426 36.325 255.171 35.4067 252.634 33.5704C250.14 31.6914 248.745 29.1506 248.449 25.9478H253.015C253.226 27.9122 254.135 29.5136 255.742 30.752C257.39 31.9478 259.589 32.5456 262.337 32.5456C264.747 32.5456 266.628 31.9691 267.981 30.8161C269.376 29.6631 270.073 28.2325 270.073 26.5243C270.073 25.3285 269.693 24.3463 268.932 23.5777C268.171 22.809 267.199 22.2111 266.015 21.7841C264.873 21.3143 263.309 20.8232 261.322 20.3108C258.743 19.6275 256.651 18.9442 255.044 18.2609C253.438 17.5777 252.064 16.574 250.922 15.2502C249.823 13.8836 249.273 12.0688 249.273 9.80535C249.273 8.09715 249.781 6.51715 250.795 5.06515C251.81 3.61315 253.247 2.46015 255.108 1.60605C256.968 0.751952 259.082 0.324951 261.449 0.324951C265.169 0.324951 268.171 1.28575 270.454 3.20755C272.737 5.08655 273.963 7.69145 274.132 11.0225H269.693C269.566 8.97265 268.763 7.32845 267.283 6.09005C265.846 4.80895 263.859 4.16835 261.322 4.16835C259.082 4.16835 257.264 4.70215 255.869 5.76975C254.473 6.83735 253.776 8.16125 253.776 9.74135C253.776 11.1079 254.177 12.2396 254.981 13.1364C255.826 13.9905 256.862 14.6737 258.088 15.1862C259.314 15.656 260.963 16.1897 263.034 16.7875C265.529 17.4708 267.516 18.1328 268.995 18.7734C270.475 19.414 271.743 20.3535 272.8 21.5919C273.857 22.8303 274.407 24.4745 274.449 26.5243C274.449 28.4033 273.942 30.0901 272.927 31.5848C271.912 33.0367 270.496 34.1898 268.678 35.0438C266.86 35.8979 264.768 36.325 262.4 36.325Z" fill="#021720"/>
<path d="M283.51 36.0796C288.199 36.0796 292 32.2788 292 27.5903H290.938C286.25 27.5903 282.449 31.3911 282.449 36.0796H283.51Z" fill="white"/>
<path fill-rule="evenodd" clip-rule="evenodd" d="M107.962 0.265381H124.667V4.23048C124.667 0.26538 124.669 0.265381 124.672 0.265381H124.677H124.687L124.712 0.265579C124.73 0.265679 124.751 0.265979 124.775 0.266479C124.823 0.267279 124.883 0.26888 124.955 0.27158C125.098 0.27698 125.286 0.286981 125.514 0.305481C125.968 0.342381 126.587 0.41348 127.317 0.55168C128.761 0.82508 130.733 1.37808 132.744 2.51978C137.025 4.95118 140.87 9.73228 140.87 18.1278C140.87 26.5874 137.049 31.4156 132.763 33.8807C130.75 35.0383 128.774 35.5998 127.326 35.8774C126.594 36.0177 125.974 36.09 125.518 36.1274C125.29 36.1462 125.1 36.1564 124.957 36.1619C124.885 36.1647 124.824 36.1662 124.776 36.1671C124.752 36.1676 124.73 36.1679 124.712 36.168L124.687 36.1682H124.677L124.672 36.1683C124.669 36.1683 124.667 36.1683 124.667 32.1889V36.1683H107.962C107.962 31.7727 111.525 28.2095 115.921 28.2095H124.637C124.641 28.2094 124.646 28.2092 124.652 28.209C124.687 28.2076 124.761 28.2041 124.866 28.1954C125.079 28.1779 125.414 28.1404 125.828 28.061C126.672 27.8992 127.752 27.5818 128.795 26.9817C130.621 25.9316 132.911 23.7293 132.911 18.1278C132.911 12.6403 130.644 10.4798 128.814 9.44048C127.768 8.84668 126.685 8.53208 125.837 8.37158C125.421 8.29288 125.085 8.25558 124.871 8.23818C124.764 8.22958 124.69 8.22598 124.654 8.22468C124.647 8.22438 124.642 8.22428 124.638 8.22408H115.921V21.7098C111.525 21.7098 107.962 18.1466 107.962 13.7511V0.265381Z" fill="white"/>
<path d="M49.1194 8.12281V14.0075H61.1424V14.5574C61.1424 18.4645 57.9744 21.6319 54.0674 21.6319H49.1194V28.1306H59.4674C63.3744 28.1306 66.5414 31.2979 66.5414 35.205V36.1643H49.1194H46.3374C42.4304 36.1643 39.2634 32.997 39.2634 29.0899V28.1306V7.16351C39.2634 3.25641 42.4304 0.0891113 46.3374 0.0891113H66.5414V1.04841C66.5414 4.95551 63.3744 8.12281 59.4674 8.12281H49.1194Z" fill="white"/>
<path d="M83.4305 8.12281V14.0075H95.4535V14.5574C95.4535 18.4645 92.2855 21.6319 88.3785 21.6319H83.4305V28.1306H93.7785C97.6855 28.1306 100.852 31.2979 100.852 35.205V36.1643H83.4305H80.6485C76.7415 36.1643 73.5745 32.997 73.5745 29.0899V28.1306V7.16351C73.5745 3.25641 76.7415 0.0891113 80.6485 0.0891113H100.852V1.04841C100.852 4.95551 97.6855 8.12281 93.7785 8.12281H83.4305Z" fill="white"/>
<path d="M0.000244141 8.1835C0.000244141 3.6639 3.66415 0 8.18345 0H32.1884C32.1884 4.5196 28.5244 8.1835 24.0054 8.1835H0.000244141Z" fill="#021720"/>
<path d="M32.1884 21.6662C32.1884 17.3684 28.7044 13.8843 24.4064 13.8843H0C0 18.1821 3.4841 21.6662 7.7814 21.6662H32.1884Z" fill="white"/>
<path d="M0.000244141 36.1688C0.000244141 31.6756 3.64264 28.0332 8.13554 28.0332H32.1885C32.1885 32.5264 28.5465 36.1688 24.0535 36.1688H0.000244141Z" fill="white"/>
<path d="M155.97 31.8793H168.241V35.6659H151.394V0H155.97V31.8793Z" fill="#021720"/>
<path fill-rule="evenodd" clip-rule="evenodd" d="M199.403 27.7344H199.44L202.256 35.6658H207.084L194.461 0.20459H189.181L176.508 35.6658H181.264L187.745 17.3045L191.719 6.04529L191.738 6.10039L191.796 5.93569L198.132 23.9478H198.061L199.403 27.7344Z" fill="#021720"/>
<path d="M233.676 17.7941C234.95 17.9988 236.107 18.5276 237.146 19.3804C238.219 20.2333 239.057 21.2908 239.66 22.553C240.297 23.8152 240.616 25.1627 240.616 26.5955C240.616 28.4035 240.163 30.041 239.258 31.5079C238.353 32.9406 237.029 34.0835 235.285 34.9363C233.575 35.755 231.547 36.1644 229.2 36.1644H216.125V0.498535H228.697C231.078 0.498535 233.106 0.907835 234.782 1.72663C236.459 2.51123 237.716 3.58583 238.554 4.95033C239.392 6.31493 239.811 7.85003 239.811 9.55573C239.811 11.6707 239.241 13.4276 238.101 14.8262C236.995 16.1908 235.52 17.1801 233.676 17.7941ZM220.702 15.9008H228.396C230.541 15.9008 232.201 15.3891 233.374 14.3657C234.548 13.3423 235.134 11.9266 235.134 10.1186C235.134 8.31054 234.548 6.89484 233.374 5.87144C232.201 4.84804 230.508 4.33633 228.295 4.33633H220.702V15.9008ZM228.798 32.3266C231.078 32.3266 232.855 31.7808 234.129 30.6891C235.403 29.5975 236.04 28.0794 236.04 26.135C236.04 24.1564 235.369 22.6042 234.028 21.4784C232.687 20.3186 230.893 19.7386 228.647 19.7386H220.702V32.3266H228.798Z" fill="#021720"/>
<path d="M262.4 36.325C258.426 36.325 255.171 35.4067 252.634 33.5704C250.14 31.6914 248.745 29.1506 248.449 25.9478H253.015C253.226 27.9122 254.135 29.5136 255.742 30.752C257.39 31.9478 259.589 32.5456 262.337 32.5456C264.747 32.5456 266.628 31.9691 267.981 30.8161C269.376 29.6631 270.073 28.2325 270.073 26.5243C270.073 25.3285 269.693 24.3463 268.932 23.5777C268.171 22.809 267.199 22.2111 266.015 21.7841C264.873 21.3143 263.309 20.8232 261.322 20.3108C258.743 19.6275 256.651 18.9442 255.044 18.2609C253.438 17.5777 252.064 16.574 250.922 15.2502C249.823 13.8836 249.273 12.0688 249.273 9.80535C249.273 8.09715 249.781 6.51715 250.795 5.06515C251.81 3.61315 253.247 2.46015 255.108 1.60605C256.968 0.751952 259.082 0.324951 261.449 0.324951C265.169 0.324951 268.171 1.28575 270.454 3.20755C272.737 5.08655 273.963 7.69145 274.132 11.0225H269.693C269.566 8.97265 268.763 7.32845 267.283 6.09005C265.846 4.80895 263.859 4.16835 261.322 4.16835C259.082 4.16835 257.264 4.70215 255.869 5.76975C254.473 6.83735 253.776 8.16125 253.776 9.74135C253.776 11.1079 254.177 12.2396 254.981 13.1364C255.826 13.9905 256.862 14.6737 258.088 15.1862C259.314 15.656 260.963 16.1897 263.034 16.7875C265.529 17.4708 267.516 18.1328 268.995 18.7734C270.475 19.414 271.743 20.3535 272.8 21.5919C273.857 22.8303 274.407 24.4745 274.449 26.5243C274.449 28.4033 273.942 30.0901 272.927 31.5848C271.912 33.0367 270.496 34.1898 268.678 35.0438C266.86 35.8979 264.768 36.325 262.4 36.325Z" fill="#021720"/>
<path d="M283.51 36.0796C288.199 36.0796 292 32.2788 292 27.5903H290.938C286.25 27.5903 282.449 31.3911 282.449 36.0796H283.51Z" fill="white"/>
</svg>
